<svg height="24" viewBox="0 0 22 24" width="22" xmlns="http://www.w3.org/2000/svg"><g fill="#bcbcbc" fill-rule="evenodd" opacity=".397066"><path d="m9.87395591 0c.88365559 0 1.59999999.7163444 1.59999999 1.6 0 .84348944-.6527022 1.5345321-1.48059011 1.59561141l-.11940988.00438859-6.6744-.00018675v16.74559995l6.6744.000761c.84348949 0 1.53453209.6527023 1.59561139 1.4805901l.0043886.1194099c0 .8434895-.6527022 1.5345321-1.48059011 1.5956114l-.11940988.0043886h-8.27395591c-.84348944 0-1.5345321-.6527022-1.59561141-1.4805901l-.00438859-.1194099v-19.9461742c0-.84348944.65270223-1.5345321 1.48059012-1.59561141l.11940988-.00438859z" fill-rule="nonzero"/><path d="m15.7082705 6.39056008c.3124194-.31241944.8189514-.31241944 1.1313708 0l4.7904119 4.79041192c.3124195.3124194.3124195.8189514 0 1.1313708l-4.7904119 4.7904119c-.1500291.1500291-.3535122.2343146-.5656854.2343146-.4418278 0-.8-.3581722-.8-.8v-2.0948238l-5.2.0007677c-.44182779 0-.79999999-.3581722-.79999999-.8v-3.99999995c0-.4418278.3581722-.8.79999999-.8l5.2-.00076775v-1.886c0-.16973855.0539427-.33391547.1523347-.46961159z"/></g></svg>