<svg height="122" viewBox="0 0 122 122" width="122" xmlns="http://www.w3.org/2000/svg"><g fill="none" fill-rule="evenodd"><g fill="#ff5050"><circle cx="61" cy="61" r="46"/><circle cx="61" cy="61" opacity=".202102" r="54"/><circle cx="61" cy="61" opacity=".089914" r="61"/></g><path d="m35.0676543 5.48514506c1.2431271-1.24272475 1.2463403-3.28123778-.0096491-4.5368254-1.264032-1.2636228-3.2887362-1.2604059-4.5399011-.00964597l-12.5181041 12.51405191-12.51810407-12.51405191c-1.25116493-1.25075993-3.2742625-1.25558292-4.53990108.00964597-1.25598949 1.25558291-1.25277626 3.29410065-.0096491 4.5368254l12.51810405 12.51405194-12.51810405 12.5140518c-1.24312716 1.2427248-1.24634039 3.2812378.0096491 4.5384315 1.26403197 1.2636228 3.28873615 1.2604059 4.53990108.009646l12.51810407-12.5140519 12.5181041 12.5140519c1.2511649 1.2507599 3.2742625 1.2555829 4.5399011-.009646 1.2559894-1.2555829 1.2527762-3.2941006.0096491-4.5384315l-12.5181041-12.5140518z" fill="#fff" fill-rule="nonzero" stroke="#fff" stroke-width="2.2" transform="translate(43 43)"/></g></svg>