<svg height="55" viewBox="0 0 74 55" width="74" xmlns="http://www.w3.org/2000/svg"><path d="m53.2903802 0c1.740094 0 3.2626763 1.52258229 3.2626763 3.26267634l.0005053 6.08894971c9.9891496 2.43902235 17.4004352 11.44602235 17.4004352 22.18757855 0 12.6156818-10.2230526 22.8387343-22.8387344 22.8387343h-28.2765282c-12.6156819 0-22.8387344-10.2230525-22.8387344-22.8387343s10.2230525-22.83873437 22.8387344-22.83873437l27.1882656-.00047023.0007038-5.43732366c0-1.74009405 1.5225823-3.26267634 3.2626764-3.26267634zm-2.1751176 15.2258229h-28.2765282c-8.917982 0-16.31338173 7.3953997-16.31338173 16.3133817s7.39539973 16.3133817 16.31338173 16.3133817h28.2765282c8.917982 0 16.3133817-7.3953997 16.3133817-16.3133817s-7.3953997-16.3133817-16.3133817-16.3133817zm-26.1014107 6.5253527c1.7400941 0 3.2626764 1.5225823 3.2626764 3.2626763v3.2626764h3.2626763c1.740094 0 3.2626763 1.5225822 3.2626763 3.2626763 0 1.740094-1.5225823 3.2626763-3.2626763 3.2626763h-3.2626763v3.2626764c0 1.740094-1.5225823 3.2626763-3.2626764 3.2626763-1.740094 0-3.2626763-1.5225823-3.2626763-3.2626763v-3.2626764h-3.2626764c-1.740094 0-3.2626763-1.5225823-3.2626763-3.2626763 0-1.7400941 1.5225823-3.2626763 3.2626763-3.2626763h3.2626764v-3.2626764c0-1.740094 1.5225823-3.2626763 3.2626763-3.2626763zm19.576058 6.5253527c.4350235 0 .8700471 0 1.3050706.2175117.4350235.2175118.870047.4350235 1.0875587.6525353.2175118.4350235.4350236.6525352.6525353 1.0875588.2175118.4350235.2175118.870047.2175118 1.3050705s0 .870047-.2175118 1.3050705c-.2175117.4350235-.4350235.870047-.6525353 1.0875588-.4350235.2175118-.6525352.4350235-1.0875587.6525353-.4350235.2175117-.8700471.2175117-1.3050706.2175117l-.1864386-.0006341c-.3728773-.0038049-.7457546-.030439-1.1186319-.2168776-.4350235-.2175118-.870047-.4350235-1.0875588-.6525353-.2175117-.4350235-.4350235-.6525353-.6525352-1.0875588-.2175118-.4350235-.2175118-.870047-.2175118-1.3050705l.0006341-.1864387c.0038049-.3728773.030439-.7457546.2168777-1.1186318.2175117-.4350236.4350235-.8700471.6525352-1.0875588.4350235-.2175118.6525353-.4350235 1.0875588-.6525353.4350235-.2175117.870047-.2175117 1.3050705-.2175117zm10.8755878 0c.4350235 0 .870047 0 1.3050706.2175117.4350235.2175118.870047.4350235 1.0875587.6525353.2175118.4350235.4350235.6525352.6525353 1.0875588.2175118.4350235.2175118.870047.2175118 1.3050705s0 .870047-.2175118 1.3050705-.4350235.870047-.6525353 1.0875588c-.4350235.2175118-.6525352.4350235-1.0875587.6525353-.4350236.2175117-.8700471.2175117-1.3050706.2175117l-.1864386-.0006341c-.3728773-.0038049-.7457546-.030439-1.1186319-.2168776-.4350235-.2175118-.870047-.4350235-1.0875588-.6525353-.2175117-.4350235-.4350235-.6525353-.6525353-1.0875588-.2175117-.4350235-.2175117-.870047-.2175117-1.3050705s0-.870047.2175117-1.3050705c.2175118-.4350236.4350236-.8700471.6525353-1.0875588.4350235-.2175118.6525353-.4350235 1.0875588-.6525353.4350235-.2175117.870047-.2175117 1.3050705-.2175117z" fill="#607088"/></svg>