<svg height="21" viewBox="0 0 22 21" width="22" xmlns="http://www.w3.org/2000/svg"><g fill="#89e1ff"><path d="m17.9411693 3.56926316c0-1.18975371-1.1897538-2.37951555-1.7846296-2.97438936-1.1897537-.59487583-1.7846295-.59487583-2.9743893 0-1.1897538.59487584-5.94875842 2.97438936-5.35388461 2.97438936h10.70778951zm3.5692631 2.37951554c0-.59487583-.5948758-1.1897537-1.1897537-1.1897537h-19.03606339c-.59487583 0-1.18975371.59487583-1.18975371 1.1897537v13.0872847c0 1.1897537.59487584 1.7846295 1.78462955 1.7846295h18.44116925c.5948758 0 1.189772-.5948758 1.189772-1.1897537v-4.2625311h-6.8816765c-.5948758 0-1.1897537-.5948758-1.1897537-1.1897537v-3.4518759c0-.5948758.5948759-1.18975366 1.1897537-1.18975366h6.8816765v-2.39849649z"/><path d="m16 12.5c0 .8284257.6715717 1.5 1.5 1.5.8284257 0 1.5-.6715717 1.5-1.5 0-.8284257-.6715717-1.5-1.5-1.5-.8284257 0-1.5.6715717-1.5 1.5z"/></g></svg>