<svg height="25" viewBox="0 0 23 25" width="23" xmlns="http://www.w3.org/2000/svg" xmlns:xlink="http://www.w3.org/1999/xlink"><linearGradient id="a" x1="50%" x2="50%" y1="0%" y2="100%"><stop offset="0" stop-color="#64758d"/><stop offset="1" stop-color="#475672"/></linearGradient><path d="m16.0710379 18.458959-.0000003.0000003c1.4431336-1.5615745 3.8789367-1.6575903 5.4405165-.2144583 1.5615745 1.4431335 1.6575903 3.8789366.2144583 5.4405165-1.4431335 1.5615744-3.8789366 1.6575902-5.4405165.2144583-1.1334434-1.0474761-1.5318323-2.6705788-1.0121791-4.123815l-6.75445688-4.1356718.00000032-.0000004c-1.67894334 1.9213556-4.59754601 2.11787-6.51891782.4389267-1.92135556-1.6789433-2.11787002-4.597546-.43892668-6.51891782 1.67894334-1.92135556 4.59754602-2.11787002 6.51891782-.43892667.16010863.1399082.31036691.29070301.44970609.45130594l6.75291385-4.1233548.0000001.0000001c-.7297732-1.9971417.297633-4.20773306 2.2947774-4.93752247 1.9971417-.72977316 4.207733.29763302 4.9375224 2.29477743.7297732 1.9971417-.297633 4.20773306-2.2947774 4.93752246-1.4495194.52966647-3.0752452.14258654-4.1305555-.9834656l-6.75751582 4.12719883c.21175019.5289897.32801948 1.1072609.32801948 1.7124808 0 .611381-.11858002 1.1942704-.33418069 1.7286526l6.74519883 4.1302848z" fill="url(#a)"/></svg>