<svg height="22" viewBox="0 0 22 22" width="22" xmlns="http://www.w3.org/2000/svg"><path d="m11 0c-6.07513672 0-11 4.92486328-11 11 0 6.0751367 4.92486328 11 11 11 6.0751367 0 11-4.9248633 11-11 0-6.07513672-4.9248633-11-11-11zm-.2749995 12.8975h-.09625.0000001c-.1414652.0187447-.284784.0187447-.42625 0h-.12375c-.15852226-.0324536-.31140959-.0880485-.45375002-.165h-.09625l-.00000013-.0000001c-.14631375-.0982053-.27623965-.2188506-.385-.3575l-.09625-.11h-.00000002c-.11814774-.1437623-.2111261-.3064746-.275-.48125v-.06875l-.00000006-.0000006c-.01217228-.1142601-.01217223-.2294896.00000012-.34375l.00000001.0000002c-.00880645-.0960485-.00880645-.1927016-.00000003-.28875v-.1375c-.00000031-.04125.8525-9.57000003 1.48500003-9.70750003.53625.11 1.265 6.27 1.58125 8.525 2.26875.26125003 8.45625.88000003 8.5525 1.37500003-.1375.715-9.66625 1.76-9.66625 1.76z" fill="#9689ff"/></svg>