<svg height="12" viewBox="0 0 12 12" width="12" xmlns="http://www.w3.org/2000/svg"><g fill="none"><path d="m11.3142989 5.71372093c0-3.16800368-2.54571727-5.71372093-5.71372095-5.71372093-3.0548607 0-5.60057795 2.54571725-5.60057795 5.71372093 0 3.0548607 2.54571725 5.60057797 5.60057795 5.60057797 3.16800368 0 5.71372095-2.54571727 5.71372095-5.60057797z" fill="#ff5050"/><path d="m5.31772047 2.26285978h.67885794c.11314299 0 .22628597.11314298.22628597.22628597l-.16971448 4.63886254c0 .0565715-.05657149.11314299-.11314299.11314299h-.56571494c-.0565715 0-.11314299-.05657149-.11314299-.11314299l-.16971448-4.63886254c0-.11314299.11314298-.22628597.22628597-.22628597zm.33942897 6.78857932c-.33942897 0-.56571494-.22628597-.56571494-.56571494 0-.28285747.22628597-.56571494.56571494-.56571494s.56571494.22628597.56571494.56571494-.22628597.56571494-.56571494.56571494z" fill="#fff"/></g></svg>