<svg height="23" viewBox="0 0 28 23" width="28" xmlns="http://www.w3.org/2000/svg"><path d="m18.7360949 7.17428781c.3085448 0 .6138231.02265346.916641.05635655-.8236243-3.8349654-4.9237948-6.68429958-9.6039264-6.68429958-5.2323366 0-9.51838417 3.56630728-9.51838417 8.09496528 0 2.61404474 1.42596647 4.76065084 3.80882748 6.42556724l-.95200986 2.8632634 3.32745661-1.6685378c1.19064998.2356452 2.14592031.477969 3.33413394.477969.2986936 0 .5948618-.0147432.888569-.0378275-.1859447-.6363606-.2937072-1.3028836-.2937072-1.9944286-.0000308-4.1583658 3.5710295-7.53301505 8.0924086-7.53301505zm-5.1179192-2.58067906c.7166934 0 1.1914801.47147516 1.1914801 1.18770533 0 .71336974-.4747898 1.19143201-1.1914801 1.19143201-.7133998 0-1.42923-.47806227-1.42923-1.19143201 0-.71623017.7158302-1.18770533 1.42923-1.18770533zm-6.66156051 2.37913734c-.71333665 0-1.4332935-.47806227-1.4332935-1.19143201 0-.71623017.71998693-1.18770533 1.4332935-1.18770533.71339982 0 1.18818658.47147516 1.18818658 1.18770533 0 .71336974-.47478977 1.19143201-1.18818658 1.19143201zm20.46689451 7.62018151c0-3.8053685-3.8080755-6.90723888-8.0850094-6.90723888-4.5287783 0-8.0957172 3.10187038-8.0957172 6.90723888 0 3.8119255 3.5669088 6.9072389 8.0957172 6.9072389.9478831 0 1.9039566-.2390311 2.8559664-.4776321l2.6107693 1.4295999-.7158302-2.3786441c1.9105738-1.4332935 3.3341039-3.3339836 3.3341039-5.4805716zm-10.7098703-1.1909989c-.4739566 0-.9520098-.4714751-.9520098-.9524008 0-.4742755.4780833-.9518776.9520098-.9518776.719987 0 1.1914802.4776322 1.1914802.9518776 0 .4809257-.4715263.9524008-1.1914802.9524008zm5.2356452 0c-.4706631 0-.9454528-.4714751-.9454528-.9524008 0-.4742755.4747897-.9518776.9454528-.9518776.7133998 0 1.1913899.4776322 1.1913899.9518776 0 .4809257-.4779901.9524008-1.1913899.9524008z" fill="#00bc70"/></svg>