<svg height="17" viewBox="0 0 17 17" width="17" 
  xmlns="http://www.w3.org/2000/svg">
  <path d="m1.0939822 1.05457439-.0333287.0333426-.08653462.09592136c-.3259911.40986305-.29635554 1.00993248.08890667 1.38521256l5.92897445 5.92994909-5.9313465 5.9342907c-.40587249.4060416-.40587249 1.0727507 0 1.4787923l.0333287.0333426.09806632.0865063c.40887671.3171899 1.00569988.2883545 1.3804045-.0865063l5.93054698-5.9334256 5.9307961 5.9334256c.40593.4060992 1.0725408.4060992 1.4784708 0l.0333287-.0333426.0864581-.0980918c.3170128-.408978.2881935-1.0058928-.0864581-1.3807005l-5.9315956-5.9342907 5.9315956-5.9322907c.4058725-.40604165.4058725-1.07275067 0-1.47879231l-.0333287-.0333426-.0980663-.08650633c-.4088767-.3171899-1.0056999-.28835446-1.3804045.08650633l-5.9307961 5.94142561-5.93042655-5.94130504c-.40605044-.40621976-1.07266124-.40621976-1.47859125-.00012057z" fill="#fff"/>
</svg>