<svg height="29" viewBox="0 0 34 29" width="34" 
  xmlns="http://www.w3.org/2000/svg" 
  xmlns:xlink="http://www.w3.org/1999/xlink">
  <linearGradient id="a" x1="50%" x2="50%" y1="20.732397%" y2="108.554732%">
    <stop offset="0" stop-color="#9ffa31"/>
    <stop offset="1" stop-color="#54812c"/>
  </linearGradient>
  <g fill="none" fill-rule="evenodd">
    <path d="m2.7 9.9h27v14.4h-27z" fill="#fff"/>
    <path d="m21.3992143 4.7966662h-3.1674643v-3.19644395c0-.88412279-.7096071-1.60022225-1.5857143-1.60022225-.8761071 0-1.5857143.71609946-1.5857143 1.60022225v3.19644395h-3.1674643c-6.56882139 0-11.8928571 5.3727462-11.8928571 12.0016669s5.32403571 12.0016669 11.8928571 12.0016669h9.5142858c6.5688214 0 11.8928571-5.3727462 11.8928571-12.0016669s-5.3359286-12.0016669-11.9007857-12.0016669zm-8.325 12.801778h-1.9821429v2.0002778c0 .6600917-.5312143 1.2001667-1.18928569 1.2001667-.65410714 0-1.18928571-.5360744-1.18928571-1.2001667v-2.0002778h-1.98214286c-.65410714 0-1.18928571-.5360744-1.18928571-1.2001667 0-.6600916.53121428-1.2001667 1.18928571-1.2001667h1.98214286v-2.0002778c0-.6600916.53121429-1.2001667 1.18928571-1.2001667.65410719 0 1.18928569.5360745 1.18928569 1.2001667v2.0002778h1.9821429c.6541071 0 1.1892857.5360745 1.1892857 1.2001667-.0039643.6640923-.5351786 1.2001667-1.1892857 1.2001667zm8.7214286-1.6002222c-1.0981072 0-1.9821429-.8921239-1.9821429-2.0002778 0-1.108154.8840357-2.0002779 1.9821429-2.0002779 1.0981071 0 1.9821428.8921239 1.9821428 2.0002779 0 1.1041533-.888 2.0002778-1.9821428 2.0002778zm3.9642857 4.7966662c-1.0981072 0-1.9821429-.8921239-1.9821429-2.0002778s.8840357-2.0002779 1.9821429-2.0002779c1.0981071 0 1.9821428.892124 1.9821428 2.0002779s-.888 2.0002778-1.9821428 2.0002778z" fill="url(#a)"/>
  </g>
</svg>