<svg height="122" viewBox="0 0 146 122" width="146" xmlns="http://www.w3.org/2000/svg"><g fill="none" fill-rule="evenodd" transform="translate(-11 -5)"><g fill="#a4d949"><circle cx="84" cy="66" r="46"/><circle cx="84" cy="66" opacity=".202102" r="54"/><circle cx="84" cy="66" opacity=".089914" r="61"/></g><path d="m45.8836452 1.74776962c-1.6115775-1.61178891-4.2247319-1.61178891-5.8363146 0l-23.3453099 23.34536158-8.75465241-8.7546524c-1.6115775-1.6115775-4.22473195-1.6115775-5.83626304 0-1.61178891 1.6117889-1.61178891 4.2247319 0 5.8363146l11.67278385 11.6727839c1.6115775 1.6117889 4.2245206 1.6117889 5.8363146 0l26.2634931-26.26349308c1.6117374-1.6117889 1.6117374-4.22473194-.0000527-5.8363146z" fill="#fff" fill-rule="nonzero" transform="translate(60 48)"/><ellipse cx="84.5" cy="64" opacity=".129069" rx="81.5" ry="26" stroke="#a3d849" transform="matrix(.8660254 -.5 .5 .8660254 -20.679147 50.824374)"/><circle cx="136" cy="17" fill="#b1fc6f" r="4"/><circle cx="13.5" cy="94.5" fill="#b1fc6f" r="2.5"/><circle cx="140.5" cy="55.5" fill="#b1fc6f" r="2.5"/></g></svg>